<?xml version="1.0" encoding="utf-8" standalone="yes"?><svg xmlns:xlink="http://www.w3.org/1999/xlink" xmlns="http://www.w3.org/2000/svg" focusable="false" preserveAspectRatio="xMinYMin" width="1178" height="433" viewBox="-594.38 -213.32 1178.1  432.86" style="background-color:white"><path d="M-302.8,172.1  C-302.8,171.3 ,-302.8,165.4  -330.8,165.4 " stroke-width="2" stroke="#3971b1" stroke-dasharray="" stroke-linecap="" stroke-opacity="1" fill="none" fill-opacity="0" visibility="visible" style="opacity: 1;"/><rect width="131" height="26" rx="0" ry="0" x="-300" y="178" stroke-width="1" stroke="#FF9933" stroke-dasharray="" stroke-linecap="" fill="#CC0033" stroke-opacity="0.4" fill-opacity="0.4" visibility="hidden" style="opacity: 0;"/><path d="M-369.2,190.2  C-346.1,190.7  -322.9,190.7  -299.8,190.7   -322.9,191.1  -346.1,191.4  -369.2,191.2  Z" stroke-width="1" stroke="#CC0033" stroke-dasharray="" stroke-linecap="" stroke-opacity="0.4" fill-opacity="0.4" visibility="hidden" style="opacity: 0;"/><path d="M-190.7,135.3  C-127.1,90.6  -63.6,45.3  0.0,0.0   -63.6,45.7  -127.1,91.3  -190.7,136.3  Z" stroke-width="1" stroke="#CC0033" stroke-dasharray="" stroke-linecap="" stroke-opacity="0.4" fill-opacity="0.4" visibility="hidden" style="opacity: 0;"/><path d="M-10.0,0.0  C-10.0,21.5 ,-10.0,172.1  -174.0,172.1 " stroke-width="2" stroke="#3971b1" stroke-dasharray="" stroke-linecap="" stroke-opacity="1" fill="none" fill-opacity="0" visibility="visible" style="opacity: 1;"/><path d="M-10.0,0.0  C-10.0,12.4 ,-10.0,99.6  -174.0,99.6 " stroke-width="2" stroke="#3971b1" stroke-dasharray="" stroke-linecap="" stroke-opacity="1" fill="none" fill-opacity="0" visibility="visible" style="opacity: 1;"/><path d="M-236.6,-29.5  C-236.6,-33.3 ,-236.6,-59.4  -264.6,-59.4 " stroke-width="2" stroke="#3971b1" stroke-dasharray="" stroke-linecap="" stroke-opacity="1" fill="none" fill-opacity="0" visibility="visible" style="opacity: 1;"/><path d="M-10.0,0.0  C-10.0,-3.7 ,-10.0,-29.5  -174.0,-29.5 " stroke-width="2" stroke="#3971b1" stroke-dasharray="" stroke-linecap="" stroke-opacity="1" fill="none" fill-opacity="0" visibility="visible" style="opacity: 1;"/><path d="M-224.1,36.7  C-224.1,35.1 ,-224.1,23.4  -252.1,23.4 " stroke-width="2" stroke="#3971b1" stroke-dasharray="" stroke-linecap="" stroke-opacity="1" fill="none" fill-opacity="0" visibility="visible" style="opacity: 1;"/><path d="M-10.0,0.0  C-10.0,-21.1 ,-10.0,-168.5  -174.0,-168.5 " stroke-width="2" stroke="#3971b1" stroke-dasharray="" stroke-linecap="" stroke-opacity="1" fill="none" fill-opacity="0" visibility="visible" style="opacity: 1;"/><path d="M-10.0,0.0  C-10.0,4.6 ,-10.0,36.7  -174.1,36.7 " stroke-width="2" stroke="#3971b1" stroke-dasharray="" stroke-linecap="" stroke-opacity="1" fill="none" fill-opacity="0" visibility="visible" style="opacity: 1;"/><path d="M-10.0,0.0  C-10.0,-16.1 ,-10.0,-128.8  -174.0,-128.8 " stroke-width="2" stroke="#3971b1" stroke-dasharray="" stroke-linecap="" stroke-opacity="1" fill="none" fill-opacity="0" visibility="visible" style="opacity: 1;"/><path d="M434.7,55.7  C434.7,55.7 ,434.7,55.7  462.7,55.7 " stroke-width="2" stroke="#3971b1" stroke-dasharray="" stroke-linecap="" stroke-opacity="1" fill="none" fill-opacity="0" visibility="visible" style="opacity: 1;"/><path d="M276.0,0.0  C276.0,7.0 ,276.0,55.7  304.0,55.7 " stroke-width="2" stroke="#3971b1" stroke-dasharray="" stroke-linecap="" stroke-opacity="1" fill="none" fill-opacity="0" visibility="visible" style="opacity: 1;"/><path d="M276.0,0.0  C276.0,2.3 ,276.0,18.6  304.0,18.6 " stroke-width="2" stroke="#3971b1" stroke-dasharray="" stroke-linecap="" stroke-opacity="1" fill="none" fill-opacity="0" visibility="visible" style="opacity: 1;"/><path d="M276.0,0.0  C276.0,-2.3 ,276.0,-18.6  304.0,-18.6 " stroke-width="2" stroke="#3971b1" stroke-dasharray="" stroke-linecap="" stroke-opacity="1" fill="none" fill-opacity="0" visibility="visible" style="opacity: 1;"/><path d="M276.0,0.0  C276.0,-7.0 ,276.0,-55.7  304.0,-55.7 " stroke-width="2" stroke="#3971b1" stroke-dasharray="" stroke-linecap="" stroke-opacity="1" fill="none" fill-opacity="0" visibility="visible" style="opacity: 1;"/><path d="M10.0,0.0  C10.0,0.0 ,10.0,0.0  174.1,0.0 " stroke-width="2" stroke="#3971b1" stroke-dasharray="" stroke-linecap="" stroke-opacity="1" fill="none" fill-opacity="0" visibility="visible" style="opacity: 1;"/><g preserveAspectRatio="none" focusable="true" width="100" height="100" transform="translate(-141.97,-16.10) scale(1.00,1.00)" test-id="1" visibility="visible" style="opacity: 1;"><rect width="290" height="38" rx="11" ry="11" x="-3" y="-3" stroke-width="1" stroke="#ffffff" stroke-dasharray="" stroke-linecap="" fill="#ffffff" stroke-opacity="0" fill-opacity="0" style="cursor: default;"/><rect width="284" height="32" rx="10" ry="10" x="0" y="0" stroke-width="2" stroke="#FFFFFF" stroke-dasharray="" stroke-linecap="" fill="#FFFFFF" visibility="visible" style="cursor: default; opacity: 1;"/><text font-family="Verdana" font-size="13.4" font-style="normal" font-weight="bold" fill="#000000" visibility="visible" style="cursor: default; opacity: 1;" y="8.05" x="8.37"><tspan dy="1em" x="8.37">Formation React Vite- (Restaurant)</tspan></text><g preserveAspectRatio="none" focusable="true" width="0" height="21"/></g><g preserveAspectRatio="none" focusable="true" width="100" height="100" transform="translate(172.07,-14.41) scale(1.00,1.00)" test-id="25" visibility="visible" style="opacity: 1;"><rect width="106" height="35" rx="10" ry="10" x="-3" y="-3" stroke-width="1" stroke="#e1c1ff" stroke-dasharray="" stroke-linecap="" fill="#e1c1ff" stroke-opacity="0" fill-opacity="0" style="cursor: move;"/><rect width="100" height="29" rx="9" ry="9" x="0" y="0" stroke-width="2" stroke="#9B7BEB" stroke-dasharray="" stroke-linecap="" fill="#9B7BEB" style="cursor: move; opacity: 1;" visibility="visible"/><text font-family="Verdana" font-size="12.1" font-style="normal" font-weight="normal" fill="#000000" visibility="visible" style="cursor: move; opacity: 1;" y="7.20" x="7.49"><tspan dy="1em" x="7.49">Dependencies</tspan></text><g preserveAspectRatio="none" focusable="true" width="0" height="19"/><ellipse width="6" height="6" rx="3" ry="3" cx="103" cy="14" stroke-width="2" stroke="#9B7BEB" stroke-dasharray="" stroke-linecap="" fill="#ffdfff" visibility="visible" style="cursor: default; opacity: 1;"/></g><g preserveAspectRatio="none" focusable="true" width="100" height="100" transform="translate(302.04,-69.24) scale(1.00,1.00)" test-id="26" visibility="visible" style="opacity: 1;"><rect width="217" height="33" rx="10" ry="10" x="-3" y="-3" stroke-width="1" stroke="#dcffff" stroke-dasharray="" stroke-linecap="" fill="#dcffff" stroke-opacity="0" fill-opacity="0" style="cursor: move;"/><text font-family="Verdana" font-size="10.8" font-style="normal" font-weight="normal" fill="#000000" visibility="visible" style="cursor: move; opacity: 1;" y="6.78" x="7.05"><tspan dy="1em" x="7.05">react-awesome-reveal (text fade in)</tspan></text><g preserveAspectRatio="none" focusable="true" width="0" height="18"/><ellipse width="6" height="6" rx="3" ry="3" cx="5" cy="5" stroke-width="2" stroke="#96e3ff" stroke-dasharray="" stroke-linecap="" fill="#faffff" visibility="hidden" style="cursor: default; opacity: 0;"/></g><g preserveAspectRatio="none" focusable="true" width="100" height="100" transform="translate(302.04,-32.12) scale(1.00,1.00)" test-id="27" visibility="visible" style="opacity: 1;"><rect width="76" height="33" rx="10" ry="10" x="-3" y="-3" stroke-width="1" stroke="#dcffff" stroke-dasharray="" stroke-linecap="" fill="#dcffff" stroke-opacity="0" fill-opacity="0" style="cursor: move;"/><text font-family="Verdana" font-size="10.8" font-style="normal" font-weight="normal" fill="#000000" visibility="visible" style="cursor: move; opacity: 1;" y="6.78" x="7.05"><tspan dy="1em" x="7.05">react-dom</tspan></text><g preserveAspectRatio="none" focusable="true" width="0" height="18"/><ellipse width="6" height="6" rx="3" ry="3" cx="5" cy="5" stroke-width="2" stroke="#96e3ff" stroke-dasharray="" stroke-linecap="" fill="#faffff" visibility="hidden" style="cursor: default; opacity: 0;"/></g><g preserveAspectRatio="none" focusable="true" width="100" height="100" transform="translate(302.04,5.00) scale(1.00,1.00)" test-id="28" visibility="visible" style="opacity: 1;"><rect width="80" height="33" rx="10" ry="10" x="-3" y="-3" stroke-width="1" stroke="#dcffff" stroke-dasharray="" stroke-linecap="" fill="#dcffff" stroke-opacity="0" fill-opacity="0" style="cursor: move;"/><text font-family="Verdana" font-size="10.8" font-style="normal" font-weight="normal" fill="#000000" visibility="visible" style="cursor: move; opacity: 1;" y="6.78" x="7.05"><tspan dy="1em" x="7.05">react-icons</tspan></text><g preserveAspectRatio="none" focusable="true" width="0" height="18"/><ellipse width="6" height="6" rx="3" ry="3" cx="5" cy="5" stroke-width="2" stroke="#96e3ff" stroke-dasharray="" stroke-linecap="" fill="#faffff" visibility="hidden" style="cursor: default; opacity: 0;"/></g><g preserveAspectRatio="none" focusable="true" width="100" height="100" transform="translate(302.04,42.12) scale(1.00,1.00)" test-id="29" visibility="visible" style="opacity: 1;"><rect width="135" height="33" rx="10" ry="10" x="-3" y="-3" stroke-width="1" stroke="#dcffff" stroke-dasharray="" stroke-linecap="" fill="#dcffff" stroke-opacity="0" fill-opacity="0" style="cursor: move;"/><text font-family="Verdana" font-size="10.8" font-style="normal" font-weight="normal" fill="#000000" visibility="visible" style="cursor: move; opacity: 1;" y="6.78" x="7.05"><tspan dy="1em" x="7.05">react-slick (carousel)</tspan></text><g preserveAspectRatio="none" focusable="true" width="0" height="18"/><ellipse width="6" height="6" rx="3" ry="3" cx="132" cy="14" stroke-width="2" stroke="#96e3ff" stroke-dasharray="" stroke-linecap="" fill="#faffff" visibility="visible" style="cursor: default; opacity: 1;"/></g><g preserveAspectRatio="none" focusable="true" width="100" height="100" transform="translate(460.72,42.12) scale(1.00,1.00)" test-id="30" visibility="visible" style="opacity: 1;"><rect width="93" height="33" rx="10" ry="10" x="-3" y="-3" stroke-width="1" stroke="#dcffff" stroke-dasharray="" stroke-linecap="" fill="#dcffff" stroke-opacity="0" fill-opacity="0" style="cursor: move;"/><text font-family="Verdana" font-size="10.8" font-style="normal" font-weight="normal" fill="#000000" visibility="visible" style="cursor: move; opacity: 1;" y="6.78" x="7.05"><tspan dy="1em" x="7.05">slick-carousel</tspan></text><g preserveAspectRatio="none" focusable="true" width="0" height="18"/><ellipse width="6" height="6" rx="3" ry="3" cx="5" cy="5" stroke-width="2" stroke="#96e3ff" stroke-dasharray="" stroke-linecap="" fill="#faffff" visibility="hidden" style="cursor: default; opacity: 0;"/></g><g preserveAspectRatio="none" focusable="true" width="100" height="100" transform="translate(-232.00,-143.66) scale(1.00,1.00)" test-id="32" visibility="visible" style="opacity: 1;"><rect width="66" height="36" rx="11" ry="11" x="-3" y="-3" stroke-width="1" stroke="#fff483" stroke-dasharray="" stroke-linecap="" fill="#fff483" stroke-opacity="0" fill-opacity="0" style="cursor: move;"/><rect width="60" height="30" rx="9" ry="9" x="0" y="0" stroke-width="2" stroke="#F3AE3D" stroke-dasharray="" stroke-linecap="" fill="#F3AE3D" style="cursor: move; opacity: 1;" visibility="visible"/><text font-family="Verdana" font-size="12.1" font-style="normal" font-weight="normal" fill="#000000" visibility="visible" style="cursor: move; opacity: 1;" y="7.41" x="7.71"><tspan dy="1em" x="7.71">NavBar</tspan></text><g preserveAspectRatio="none" focusable="true" width="0" height="19"/><ellipse width="6" height="6" rx="3" ry="3" cx="5" cy="5" stroke-width="2" stroke="#F3AE3D" stroke-dasharray="" stroke-linecap="" fill="#ffffa1" visibility="hidden" style="cursor: default; opacity: 0;"/></g><g preserveAspectRatio="none" focusable="true" width="100" height="100" transform="translate(-220.07,22.03) scale(1.00,1.00)" test-id="33" visibility="visible" style="opacity: 1;"><rect width="54" height="35" rx="11" ry="11" x="-3" y="-3" stroke-width="1" stroke="#b0ffff" stroke-dasharray="" stroke-linecap="" fill="#b0ffff" stroke-opacity="0" fill-opacity="0" style="cursor: move;"/><rect width="48" height="29" rx="9" ry="9" x="0" y="0" stroke-width="2" stroke="#6AD6D7" stroke-dasharray="" stroke-linecap="" fill="#6AD6D7" style="cursor: move; opacity: 1;" visibility="visible"/><text font-family="Verdana" font-size="12.1" font-style="normal" font-weight="normal" fill="#000000" visibility="visible" style="cursor: move; opacity: 1;" y="7.35" x="7.64"><tspan dy="1em" x="7.64">Menu</tspan></text><g preserveAspectRatio="none" focusable="true" width="0" height="19"/><ellipse width="6" height="6" rx="3" ry="3" cx="-3" cy="15" stroke-width="2" stroke="#6AD6D7" stroke-dasharray="" stroke-linecap="" fill="#ceffff" visibility="visible" style="cursor: default; opacity: 1;"/></g><g preserveAspectRatio="none" focusable="true" width="100" height="100" transform="translate(-442.08,-4.83) scale(1.00,1.00)" test-id="39" visibility="visible" style="opacity: 1;"><rect width="198" height="62" rx="19" ry="19" x="-3" y="-3" stroke-width="1" stroke="#dcffff" stroke-dasharray="" stroke-linecap="" fill="#dcffff" stroke-opacity="0" fill-opacity="0" style="cursor: move;"/><text font-family="Verdana" font-size="10.8" font-style="normal" font-weight="normal" fill="#000000" visibility="visible" style="cursor: move; opacity: 1;" y="5.64" x="5.86"><tspan dy="1em" x="5.86">data.js</tspan><tspan dy="1em" x="5.86">&gt; show all menu items</tspan><tspan dy="1em" x="5.86">&gt; filter by categories and cheffes</tspan><tspan dy="1em" x="5.86">&gt; useState - .map - .filter</tspan></text><g preserveAspectRatio="none" focusable="true" width="0" height="15"/><ellipse width="6" height="6" rx="3" ry="3" cx="5" cy="5" stroke-width="2" stroke="#96e3ff" stroke-dasharray="" stroke-linecap="" fill="#faffff" visibility="hidden" style="cursor: default; opacity: 0;"/></g><g preserveAspectRatio="none" focusable="true" width="100" height="100" transform="translate(-297.20,-183.32) scale(1.00,1.00)" test-id="41" visibility="visible" style="opacity: 1;"><rect width="131" height="36" rx="11" ry="11" x="-3" y="-3" stroke-width="1" stroke="#ffa8d2" stroke-dasharray="" stroke-linecap="" fill="#ffa8d2" stroke-opacity="0" fill-opacity="0" style="cursor: move;"/><rect width="125" height="30" rx="9" ry="9" x="0" y="0" stroke-width="2" stroke="#E5628C" stroke-dasharray="" stroke-linecap="" fill="#E5628C" style="cursor: move; opacity: 1;" visibility="visible"/><text font-family="Verdana" font-size="12.1" font-style="normal" font-weight="normal" fill="#000000" visibility="visible" style="cursor: move; opacity: 1;" y="7.41" x="7.71"><tspan dy="1em" x="7.71">Component - Title </tspan></text><g preserveAspectRatio="none" focusable="true" width="0" height="19"/><ellipse width="6" height="6" rx="3" ry="3" cx="-3" cy="15" stroke-width="2" stroke="#E5628C" stroke-dasharray="" stroke-linecap="" fill="#ffc6f0" visibility="hidden" style="cursor: default; opacity: 0;"/></g><g preserveAspectRatio="none" focusable="true" width="100" height="100" transform="translate(-232.61,-44.23) scale(1.00,1.00)" test-id="42" visibility="visible" style="opacity: 1;"><rect width="67" height="35" rx="11" ry="11" x="-3" y="-3" stroke-width="1" stroke="#ebff8b" stroke-dasharray="" stroke-linecap="" fill="#ebff8b" stroke-opacity="0" fill-opacity="0" style="cursor: move;"/><rect width="61" height="29" rx="9" ry="9" x="0" y="0" stroke-width="2" stroke="#A5D945" stroke-dasharray="" stroke-linecap="" fill="#A5D945" style="cursor: move; opacity: 1;" visibility="visible"/><text font-family="Verdana" font-size="12.1" font-style="normal" font-weight="normal" fill="#000000" visibility="visible" style="cursor: move; opacity: 1;" y="7.35" x="7.64"><tspan dy="1em" x="7.64">Cheffes</tspan></text><g preserveAspectRatio="none" focusable="true" width="0" height="19"/><ellipse width="6" height="6" rx="3" ry="3" cx="-3" cy="15" stroke-width="2" stroke="#A5D945" stroke-dasharray="" stroke-linecap="" fill="#ffffa9" visibility="visible" style="cursor: default; opacity: 1;"/></g><g preserveAspectRatio="none" focusable="true" width="100" height="100" transform="translate(-372.46,-104.01) scale(1.00,1.00)" test-id="43" visibility="visible" style="opacity: 1;"><rect width="116" height="95" rx="29" ry="29" x="-3" y="-3" stroke-width="1" stroke="#dcffff" stroke-dasharray="" stroke-linecap="" fill="#dcffff" stroke-opacity="0" fill-opacity="0" style="cursor: move;"/><text font-family="Verdana" font-size="10.8" font-style="normal" font-weight="normal" fill="#000000" visibility="visible" style="cursor: move; opacity: 1;" y="5.57" x="5.80"><tspan dy="1em" x="5.80">cheffes.js</tspan><tspan dy="1em" x="5.80">*Carousel*</tspan><tspan dy="1em" x="5.80">&gt; useState</tspan><tspan dy="1em" x="5.80">&gt; index</tspan><tspan dy="1em" x="5.80">&gt;  return .lenght</tspan><tspan dy="1em" x="5.80">&gt; currentIndex</tspan><tspan dy="1em" x="5.80">&gt; previous &amp; next</tspan></text><g preserveAspectRatio="none" focusable="true" width="0" height="14"/><ellipse width="6" height="6" rx="3" ry="3" cx="-3" cy="45" stroke-width="2" stroke="#96e3ff" stroke-dasharray="" stroke-linecap="" fill="#faffff" visibility="hidden" style="cursor: default; opacity: 0;"/></g><g preserveAspectRatio="none" focusable="true" width="100" height="100" transform="translate(-255.41,61.56) scale(1.00,1.00)" test-id="44" visibility="visible" style="opacity: 1;"><rect width="89" height="82" rx="25" ry="25" x="-3" y="-3" stroke-width="1" stroke="#91b5ff" stroke-dasharray="" stroke-linecap="" fill="#91b5ff" stroke-opacity="0" fill-opacity="0" style="cursor: move;"/><rect width="83" height="76" rx="23" ry="23" x="0" y="0" stroke-width="2" stroke="#4B6FF6" stroke-dasharray="" stroke-linecap="" fill="#4B6FF6" style="cursor: move; opacity: 1;" visibility="visible"/><text font-family="Verdana" font-size="12.1" font-style="normal" font-weight="normal" fill="#000000" visibility="visible" style="cursor: move; opacity: 1;" y="6.33" x="6.59"><tspan dy="1em" x="6.59">Nouvelles</tspan><tspan dy="1em" x="6.59">*carousel*</tspan><tspan dy="1em" x="6.59">autoslider</tspan><tspan dy="1em" x="6.59">&gt; useEffect</tspan><tspan dy="1em" x="6.59">&gt; useState</tspan></text><g preserveAspectRatio="none" focusable="true" width="0" height="16"/><ellipse width="6" height="6" rx="3" ry="3" cx="5" cy="5" stroke-width="2" stroke="#4B6FF6" stroke-dasharray="" stroke-linecap="" fill="#afd3ff" visibility="hidden" style="cursor: default; opacity: 0;"/></g><g preserveAspectRatio="none" focusable="true" width="100" height="100" transform="translate(-564.38,147.54) scale(1.00,1.00)" test-id="45" visibility="visible" style="opacity: 1;"><rect width="242" height="42" rx="13" ry="13" x="-3" y="-3" stroke-width="1" stroke="#dcffff" stroke-dasharray="" stroke-linecap="" fill="#dcffff" stroke-opacity="1" fill-opacity="1" style="cursor: move;"/><text font-family="Verdana" font-size="10.8" font-style="normal" font-weight="normal" fill="#000000" visibility="visible" style="cursor: move; opacity: 1;" y="5.96" x="6.20"><tspan dy="1em" x="6.20">&gt; context - useGlobalContext</tspan><tspan dy="1em" x="6.20">- from css switch to dark and clear mode</tspan></text><g preserveAspectRatio="none" focusable="true" width="0" height="16"/><ellipse width="6" height="6" rx="3" ry="3" cx="5" cy="5" stroke-width="2" stroke="#96e3ff" stroke-dasharray="" stroke-linecap="" fill="#faffff" visibility="hidden" style="cursor: default; opacity: 0;"/></g><g preserveAspectRatio="none" focusable="true" width="100" height="100" transform="translate(-298.81,160.95) scale(1.00,1.00)" test-id="48" visibility="visible" style="opacity: 1;"><rect width="133" height="28" rx="9" ry="9" x="-3" y="-3" stroke-width="1" stroke="#ffa8d2" stroke-dasharray="" stroke-linecap="" fill="#ffa8d2" stroke-opacity="0" fill-opacity="0" style="cursor: move;"/><rect width="127" height="22" rx="7" ry="7" x="0" y="0" stroke-width="2" stroke="#E5628C" stroke-dasharray="" stroke-linecap="" fill="#E5628C" style="cursor: move; opacity: 1;" visibility="visible"/><text font-family="Verdana" font-size="12.1" font-style="normal" font-weight="normal" fill="#000000" visibility="visible" style="cursor: move; opacity: 1;" y="3.73" x="3.88"><tspan dy="1em" x="3.88">Toggle Theme Dark</tspan><tspan dy="1em" x="3.88"> </tspan></text><g preserveAspectRatio="none" focusable="true" width="0" height="10"/><ellipse width="6" height="6" rx="3" ry="3" cx="-3" cy="11" stroke-width="2" stroke="#E5628C" stroke-dasharray="" stroke-linecap="" fill="#ffc6f0" visibility="visible" style="cursor: default; opacity: 1;"/></g><rect width="50" height="6" rx="0" ry="0" x="-417" y="188" stroke-width="1" stroke="#FF9933" stroke-dasharray="" stroke-linecap="" fill="#CC0033" stroke-opacity="0.4" fill-opacity="0.4" visibility="hidden" style="opacity: 0;"/></svg>